<?xml version="1.0" standalone="no"?>
<!DOCTYPE svg PUBLIC "-//W3C//DTD SVG 20010904//EN"
 "http://www.w3.org/TR/2001/REC-SVG-20010904/DTD/svg10.dtd">
<svg version="1.0" xmlns="http://www.w3.org/2000/svg"
 width="500.000000pt" height="500.000000pt" viewBox="0 0 500.000000 500.000000"
 preserveAspectRatio="xMidYMid meet">
<metadata>
Created by potrace 1.16, written by Peter Selinger 2001-2019
</metadata>
<g transform="translate(0.000000,500.000000) scale(0.100000,-0.100000)"
fill="#000000" stroke="none">
<path d="M2000 3456 c0 -13 16 -16 100 -16 l100 0 0 -370 0 -370 110 0 110 0
0 370 0 370 123 0 c229 -1 323 -27 421 -120 105 -100 155 -242 163 -472 l6
-148 123 0 124 0 0 73 c-1 185 -77 370 -206 501 -73 73 -161 127 -269 164
l-80 26 -412 4 c-369 3 -413 2 -413 -12z"/>
<path d="M1633 3005 c-97 -291 -100 -305 -79 -305 19 0 26 13 56 106 l35 106
34 -106 35 -106 124 0 c95 0 123 3 120 13 -3 6 -49 144 -102 305 -54 162 -103
292 -109 292 -7 0 -57 -135 -114 -305z"/>
<path d="M1313 2035 l-88 -265 -97 0 c-91 0 -98 -1 -98 -20 0 -19 7 -20 255
-20 248 0 255 1 255 20 0 19 -7 20 -136 20 -105 0 -135 3 -132 13 3 6 35 105
72 220 l67 207 233 0 c213 0 234 -2 241 -17 4 -10 38 -109 75 -220 l69 -203
-120 0 c-112 0 -119 -1 -119 -20 0 -20 7 -20 340 -20 333 0 340 0 340 20 0 19
-7 20 -102 20 l-103 0 -26 84 -26 84 301 5 c330 4 348 7 479 70 116 55 215
145 280 256 l18 31 -105 0 c-78 0 -106 -3 -106 -12 0 -31 -63 -142 -107 -189
-90 -96 -163 -119 -390 -119 l-163 0 0 160 0 160 -110 0 -110 0 -1 -157 -1
-158 -52 155 -53 155 -120 3 -120 3 4 -26 5 -25 -217 0 -217 0 6 25 c5 20 3
25 -13 25 -17 0 -33 -40 -108 -265z"/>
</g>
</svg>
